<svg id="svg" version="1.1" width="400" height="108.22510822510822" viewBox="0 0 400 108.22510822510822" xmlns="http://www.w3.org/2000/svg" xmlns:xlink="http://www.w3.org/1999/xlink" ><g id="svgg"><path id="path0" d="" stroke="none" fill="#000000" fill-rule="evenodd"></path><path id="path1" d="" stroke="none" fill="#ffffff" fill-rule="evenodd"></path><path id="path2" d="M341.167 0.186 C 340.662 0.255,339.793 0.351,339.233 0.401 C 338.674 0.451,338.112 0.528,337.983 0.574 C 337.855 0.619,337.450 0.692,337.083 0.737 C 336.502 0.807,335.992 0.896,334.195 1.244 C 333.981 1.285,333.644 1.371,333.445 1.434 C 333.246 1.497,332.971 1.562,332.833 1.577 C 332.430 1.623,331.631 1.844,330.958 2.096 C 330.615 2.225,330.333 2.300,330.333 2.263 C 330.333 2.226,329.940 2.344,329.458 2.526 C 328.977 2.707,328.508 2.874,328.417 2.895 C 328.088 2.973,326.910 3.359,326.583 3.497 C 326.206 3.655,324.835 4.254,324.083 4.588 C 323.808 4.710,323.058 5.052,322.417 5.347 C 321.775 5.642,321.244 5.854,321.237 5.817 C 321.230 5.780,320.967 5.938,320.654 6.167 C 320.340 6.396,319.783 6.733,319.417 6.915 C 319.050 7.098,318.695 7.323,318.628 7.415 C 318.560 7.508,318.504 7.523,318.503 7.450 C 318.501 7.377,318.144 7.564,317.708 7.865 C 317.273 8.166,316.860 8.395,316.792 8.373 C 316.723 8.351,316.667 8.399,316.667 8.480 C 316.667 8.560,316.442 8.719,316.167 8.833 C 315.892 8.947,315.667 9.101,315.667 9.176 C 315.667 9.250,315.535 9.353,315.375 9.404 C 315.215 9.455,314.877 9.688,314.625 9.922 C 314.373 10.155,314.167 10.301,314.167 10.245 C 314.167 10.189,314.063 10.242,313.935 10.363 C 313.471 10.805,313.062 11.107,312.784 11.214 C 312.628 11.274,312.500 11.400,312.500 11.495 C 312.500 11.589,312.419 11.667,312.321 11.667 C 312.222 11.667,311.927 11.873,311.666 12.125 C 311.405 12.377,310.835 12.883,310.399 13.250 C 309.370 14.117,306.006 17.487,304.833 18.826 C 304.329 19.401,303.785 20.013,303.625 20.186 C 303.465 20.359,303.379 20.500,303.434 20.500 C 303.489 20.500,303.321 20.752,303.059 21.060 C 302.248 22.014,302.032 22.295,301.847 22.640 C 301.749 22.824,301.575 23.074,301.459 23.195 C 301.065 23.612,298.500 27.710,298.500 27.923 C 298.500 27.957,298.266 28.382,297.980 28.868 C 297.694 29.353,297.459 29.787,297.459 29.833 C 297.456 30.029,297.267 30.435,297.070 30.667 C 296.953 30.804,296.862 30.954,296.868 31.000 C 296.875 31.046,296.711 31.458,296.506 31.917 C 295.782 33.528,295.606 33.968,295.505 34.417 C 295.484 34.508,295.383 34.733,295.281 34.917 C 295.179 35.100,295.086 35.287,295.076 35.333 C 294.927 35.969,294.756 36.456,294.623 36.625 C 294.533 36.740,294.509 36.833,294.569 36.833 C 294.629 36.833,294.589 37.000,294.480 37.204 C 294.371 37.409,294.216 37.840,294.136 38.163 C 293.882 39.186,293.866 39.241,293.686 39.708 C 293.588 39.960,293.545 40.167,293.590 40.167 C 293.634 40.167,293.564 40.423,293.433 40.736 C 293.302 41.050,293.228 41.339,293.269 41.380 C 293.309 41.421,293.263 41.664,293.165 41.922 C 292.988 42.386,292.953 42.562,292.751 43.991 C 292.693 44.398,292.615 44.783,292.576 44.845 C 292.538 44.907,292.465 45.324,292.416 45.771 C 292.366 46.218,292.259 46.958,292.179 47.417 C 292.099 47.875,292.036 48.400,292.039 48.583 C 292.042 48.767,291.948 50.089,291.831 51.522 C 291.658 53.626,291.657 54.619,291.826 56.688 C 291.941 58.097,292.058 59.550,292.085 59.917 C 292.159 60.900,292.483 63.171,292.571 63.313 C 292.612 63.380,292.693 63.768,292.751 64.176 C 292.953 65.605,292.988 65.781,293.165 66.245 C 293.263 66.502,293.309 66.746,293.269 66.787 C 293.228 66.827,293.302 67.117,293.433 67.430 C 293.564 67.744,293.634 68.000,293.590 68.000 C 293.545 68.000,293.588 68.206,293.686 68.458 C 293.866 68.926,293.882 68.980,294.136 70.004 C 294.216 70.327,294.371 70.758,294.480 70.962 C 294.589 71.166,294.629 71.333,294.569 71.333 C 294.509 71.333,294.533 71.427,294.623 71.542 C 294.756 71.711,294.927 72.198,295.076 72.833 C 295.086 72.879,295.179 73.067,295.281 73.250 C 295.383 73.433,295.484 73.658,295.505 73.750 C 295.599 74.166,295.803 74.668,296.589 76.417 C 296.754 76.783,296.881 77.121,296.873 77.167 C 296.864 77.212,296.953 77.362,297.070 77.500 C 297.264 77.729,297.377 77.967,297.505 78.417 C 297.531 78.508,297.726 78.883,297.939 79.250 C 298.152 79.617,298.497 80.254,298.705 80.667 C 298.913 81.079,299.141 81.492,299.211 81.583 C 299.282 81.675,299.768 82.425,300.291 83.250 C 300.815 84.075,301.339 84.850,301.456 84.971 C 301.573 85.093,301.749 85.343,301.847 85.526 C 302.019 85.846,302.124 85.983,302.958 86.972 C 303.164 87.217,303.333 87.473,303.333 87.542 C 303.333 87.610,303.465 87.808,303.625 87.981 C 303.785 88.153,304.329 88.764,304.833 89.338 C 306.044 90.717,309.389 94.077,310.388 94.917 C 310.824 95.283,311.534 95.900,311.965 96.288 C 312.397 96.676,312.805 96.994,312.873 96.996 C 312.994 97.000,313.476 97.366,313.935 97.804 C 314.063 97.925,314.167 97.978,314.167 97.922 C 314.167 97.866,314.373 98.011,314.625 98.245 C 314.877 98.479,315.215 98.712,315.375 98.763 C 315.535 98.814,315.667 98.917,315.667 98.991 C 315.667 99.065,315.892 99.219,316.167 99.333 C 316.442 99.447,316.667 99.611,316.667 99.697 C 316.667 99.783,316.735 99.811,316.819 99.759 C 316.903 99.707,316.997 99.721,317.027 99.791 C 317.116 99.989,318.500 100.853,318.503 100.711 C 318.504 100.641,318.560 100.660,318.628 100.754 C 318.695 100.848,319.106 101.110,319.542 101.337 C 319.977 101.564,320.333 101.806,320.333 101.875 C 320.333 101.944,320.419 102.000,320.523 102.000 C 320.627 102.000,321.321 102.292,322.064 102.649 C 322.808 103.006,323.792 103.461,324.250 103.660 C 325.491 104.197,326.220 104.522,326.505 104.664 C 326.646 104.734,327.021 104.847,327.339 104.915 C 327.657 104.983,327.992 105.085,328.083 105.140 C 328.175 105.195,328.325 105.256,328.417 105.276 C 328.508 105.295,328.977 105.459,329.458 105.641 C 329.940 105.823,330.333 105.939,330.333 105.900 C 330.333 105.861,330.596 105.939,330.917 106.073 C 331.237 106.207,331.500 106.282,331.500 106.239 C 331.500 106.197,331.756 106.269,332.070 106.400 C 332.383 106.531,332.673 106.605,332.713 106.564 C 332.754 106.524,332.989 106.567,333.235 106.661 C 333.482 106.755,333.886 106.868,334.134 106.912 C 334.381 106.955,334.996 107.072,335.500 107.171 C 336.004 107.270,336.717 107.388,337.083 107.433 C 337.450 107.477,337.871 107.550,338.019 107.594 C 338.167 107.638,338.692 107.712,339.185 107.757 C 339.679 107.803,340.646 107.908,341.333 107.991 C 342.987 108.192,348.942 108.197,350.417 107.998 C 351.058 107.912,352.001 107.807,352.512 107.765 C 353.022 107.723,353.622 107.644,353.845 107.591 C 354.068 107.538,354.475 107.464,354.750 107.426 C 355.025 107.389,355.700 107.272,356.250 107.167 C 356.800 107.061,357.444 106.946,357.680 106.911 C 357.917 106.875,358.311 106.770,358.555 106.677 C 358.800 106.584,359.000 106.545,359.000 106.590 C 359.000 106.634,359.256 106.564,359.570 106.433 C 359.883 106.302,360.177 106.232,360.222 106.278 C 360.268 106.323,360.466 106.274,360.663 106.169 C 360.860 106.063,361.148 105.951,361.302 105.920 C 361.839 105.812,365.588 104.522,366.333 104.190 C 366.746 104.005,367.142 103.853,367.213 103.852 C 367.284 103.851,367.622 103.705,367.963 103.528 C 368.677 103.159,369.350 102.882,369.565 102.870 C 369.646 102.866,369.760 102.785,369.818 102.691 C 369.876 102.598,370.259 102.367,370.670 102.179 C 371.516 101.792,372.388 101.301,372.722 101.023 C 372.846 100.920,372.997 100.886,373.057 100.946 C 373.117 101.006,373.167 100.968,373.167 100.861 C 373.167 100.754,373.244 100.667,373.338 100.667 C 373.543 100.667,376.255 98.961,376.791 98.495 C 376.999 98.315,377.244 98.167,377.335 98.167 C 377.426 98.167,377.500 98.087,377.500 97.990 C 377.500 97.893,377.561 97.852,377.636 97.898 C 377.711 97.944,377.878 97.836,378.006 97.658 C 378.135 97.479,378.298 97.333,378.369 97.333 C 378.488 97.333,379.083 96.868,379.594 96.375 C 379.712 96.260,379.845 96.167,379.889 96.167 C 380.124 96.167,386.000 90.612,386.000 90.390 C 386.000 90.341,386.206 90.100,386.458 89.854 C 387.066 89.263,387.812 88.397,388.373 87.631 C 388.865 86.960,389.298 86.421,389.617 86.085 C 389.727 85.968,389.771 85.827,389.714 85.770 C 389.658 85.713,389.699 85.667,389.806 85.667 C 389.912 85.667,390.000 85.560,390.000 85.431 C 390.000 85.301,390.063 85.169,390.140 85.139 C 390.344 85.058,392.500 81.760,392.500 81.529 C 392.500 81.422,392.588 81.333,392.694 81.333 C 392.801 81.333,392.840 81.284,392.779 81.224 C 392.719 81.163,392.754 81.013,392.857 80.888 C 393.273 80.387,395.420 76.134,395.577 75.500 C 395.588 75.454,395.769 75.042,395.978 74.583 C 396.187 74.125,396.536 73.225,396.755 72.583 C 396.973 71.942,397.264 71.105,397.403 70.723 C 397.541 70.342,397.689 69.842,397.730 69.613 C 397.772 69.384,397.893 69.033,398.000 68.834 C 398.106 68.634,398.156 68.434,398.111 68.389 C 398.066 68.343,398.135 68.050,398.266 67.736 C 398.397 67.423,398.468 67.167,398.423 67.167 C 398.378 67.167,398.418 66.967,398.511 66.722 C 398.604 66.477,398.709 66.084,398.744 65.847 C 398.779 65.610,398.895 64.967,399.000 64.417 C 399.105 63.867,399.222 63.192,399.260 62.917 C 399.297 62.642,399.372 62.233,399.425 62.008 C 399.479 61.783,399.554 61.183,399.592 60.675 C 399.630 60.166,399.733 59.225,399.822 58.583 C 400.028 57.093,400.026 51.111,399.819 49.583 C 399.732 48.942,399.630 48.001,399.592 47.492 C 399.554 46.984,399.479 46.384,399.425 46.159 C 399.372 45.934,399.297 45.525,399.260 45.250 C 399.222 44.975,399.105 44.300,399.000 43.750 C 398.895 43.200,398.779 42.556,398.744 42.320 C 398.709 42.083,398.604 41.689,398.511 41.445 C 398.418 41.200,398.378 41.000,398.423 41.000 C 398.468 41.000,398.397 40.744,398.266 40.430 C 398.135 40.117,398.065 39.824,398.110 39.779 C 398.155 39.734,398.071 39.466,397.925 39.182 C 397.778 38.899,397.690 38.667,397.729 38.667 C 397.871 38.667,396.523 34.788,395.904 33.417 C 395.739 33.050,395.593 32.712,395.580 32.667 C 395.393 32.011,393.222 27.675,392.903 27.320 C 392.772 27.175,392.716 27.006,392.777 26.945 C 392.839 26.883,392.801 26.833,392.694 26.833 C 392.588 26.833,392.500 26.745,392.500 26.637 C 392.500 26.406,390.344 23.109,390.140 23.028 C 390.063 22.997,390.000 22.866,390.000 22.736 C 390.000 22.606,389.921 22.500,389.823 22.500 C 389.726 22.500,389.685 22.439,389.731 22.364 C 389.778 22.289,389.669 22.122,389.491 21.994 C 389.313 21.865,389.167 21.670,389.167 21.560 C 389.167 21.451,389.104 21.336,389.027 21.306 C 388.950 21.275,388.669 20.949,388.402 20.581 C 387.822 19.783,387.086 18.923,386.458 18.312 C 386.206 18.067,386.000 17.826,386.000 17.777 C 386.000 17.728,385.168 16.877,384.152 15.886 C 381.401 13.203,380.675 12.547,379.405 11.590 C 379.045 11.319,378.725 11.038,378.694 10.965 C 378.664 10.893,378.549 10.833,378.440 10.833 C 378.330 10.833,378.135 10.687,378.006 10.509 C 377.878 10.331,377.711 10.222,377.636 10.269 C 377.561 10.315,377.500 10.274,377.500 10.177 C 377.500 10.079,377.426 10.000,377.335 10.000 C 377.244 10.000,376.987 9.841,376.764 9.648 C 376.246 9.198,374.721 8.223,374.125 7.961 C 373.873 7.851,373.667 7.702,373.667 7.630 C 373.667 7.559,373.554 7.500,373.417 7.500 C 373.279 7.500,373.167 7.413,373.167 7.306 C 373.167 7.199,373.117 7.161,373.055 7.223 C 372.994 7.284,372.825 7.229,372.680 7.101 C 372.535 6.973,371.854 6.585,371.167 6.239 C 370.479 5.893,369.871 5.541,369.815 5.457 C 369.759 5.374,369.684 5.316,369.648 5.330 C 369.555 5.366,369.029 5.169,368.167 4.775 C 367.754 4.587,367.379 4.427,367.333 4.418 C 367.287 4.410,366.875 4.233,366.417 4.025 C 365.958 3.818,365.021 3.460,364.333 3.230 C 363.646 3.001,362.933 2.748,362.750 2.669 C 362.428 2.531,361.592 2.321,361.416 2.334 C 361.368 2.337,361.099 2.221,360.816 2.074 C 360.534 1.928,360.266 1.845,360.221 1.890 C 360.176 1.935,359.883 1.865,359.570 1.734 C 359.256 1.603,359.000 1.532,359.000 1.577 C 359.000 1.622,358.800 1.582,358.555 1.489 C 358.311 1.396,357.917 1.291,357.680 1.256 C 357.444 1.221,356.800 1.105,356.250 1.000 C 355.700 0.895,355.025 0.778,354.750 0.740 C 354.475 0.703,354.066 0.628,353.841 0.575 C 353.616 0.521,353.016 0.445,352.508 0.406 C 351.999 0.368,351.021 0.266,350.333 0.180 C 348.883 -0.001,342.514 0.003,341.167 0.186 M350.667 5.410 C 351.079 5.449,351.754 5.532,352.167 5.595 C 352.579 5.658,353.142 5.736,353.417 5.769 C 353.692 5.801,354.102 5.872,354.328 5.926 C 354.554 5.980,354.976 6.055,355.266 6.092 C 355.555 6.129,356.000 6.238,356.253 6.334 C 356.506 6.431,356.750 6.473,356.794 6.428 C 356.839 6.383,357.123 6.450,357.424 6.576 C 357.726 6.702,358.009 6.768,358.054 6.724 C 358.099 6.679,358.365 6.761,358.646 6.906 C 358.927 7.051,359.215 7.156,359.287 7.139 C 359.358 7.122,359.754 7.204,360.167 7.322 C 360.579 7.439,360.936 7.526,360.960 7.514 C 360.984 7.503,361.228 7.609,361.502 7.751 C 361.776 7.893,362.000 7.974,362.000 7.933 C 362.000 7.826,364.049 8.663,364.242 8.848 C 364.329 8.932,364.531 9.000,364.690 9.000 C 364.850 9.000,365.414 9.225,365.944 9.500 C 366.474 9.775,366.994 10.000,367.100 10.000 C 367.206 10.000,367.385 10.112,367.498 10.248 C 367.612 10.385,367.766 10.458,367.842 10.411 C 367.918 10.365,368.040 10.426,368.115 10.547 C 368.257 10.780,369.338 11.333,369.650 11.333 C 369.751 11.333,369.833 11.421,369.833 11.528 C 369.833 11.635,369.880 11.675,369.937 11.618 C 369.994 11.561,370.283 11.699,370.578 11.924 C 370.873 12.149,371.201 12.333,371.307 12.333 C 371.413 12.333,371.500 12.413,371.500 12.510 C 371.500 12.607,371.576 12.640,371.668 12.583 C 371.760 12.526,371.881 12.596,371.935 12.738 C 371.990 12.881,372.102 12.957,372.184 12.906 C 372.266 12.855,372.333 12.888,372.333 12.979 C 372.333 13.070,372.483 13.192,372.666 13.250 C 372.848 13.308,373.093 13.444,373.210 13.553 C 373.326 13.661,373.795 14.009,374.252 14.327 C 374.709 14.644,375.108 14.963,375.139 15.035 C 375.169 15.107,375.273 15.167,375.370 15.167 C 375.466 15.167,375.719 15.354,375.931 15.583 C 376.144 15.813,376.388 16.000,376.474 16.000 C 376.560 16.000,376.674 16.112,376.727 16.250 C 376.780 16.387,376.900 16.500,376.995 16.500 C 377.089 16.500,377.508 16.819,377.925 17.208 C 379.161 18.361,381.833 20.997,381.833 21.064 C 381.833 21.097,382.172 21.491,382.585 21.937 C 383.677 23.119,383.740 23.193,384.181 23.831 C 384.402 24.151,384.696 24.505,384.833 24.618 C 384.971 24.731,385.023 24.825,384.950 24.828 C 384.876 24.831,385.045 25.077,385.325 25.375 C 385.605 25.673,385.877 26.048,385.928 26.208 C 385.980 26.369,386.097 26.500,386.188 26.500 C 386.279 26.500,386.311 26.569,386.259 26.652 C 386.207 26.736,386.221 26.830,386.291 26.861 C 386.481 26.945,387.167 27.962,387.167 28.160 C 387.167 28.255,387.246 28.333,387.343 28.333 C 387.440 28.333,387.478 28.400,387.427 28.483 C 387.377 28.565,387.458 28.679,387.608 28.736 C 387.758 28.794,387.836 28.886,387.780 28.942 C 387.725 28.997,387.905 29.370,388.181 29.771 C 388.457 30.172,388.636 30.500,388.580 30.500 C 388.524 30.500,388.617 30.706,388.788 30.958 C 388.958 31.210,389.272 31.792,389.484 32.250 C 389.696 32.708,389.937 33.196,390.019 33.333 C 390.244 33.708,390.540 34.383,390.750 35.000 C 390.782 35.096,390.992 35.587,391.478 36.708 C 391.667 37.144,391.777 37.500,391.724 37.500 C 391.670 37.500,391.699 37.594,391.789 37.708 C 391.879 37.823,391.994 38.067,392.046 38.250 C 392.098 38.433,392.302 39.108,392.501 39.750 C 392.699 40.392,392.886 41.067,392.915 41.250 C 392.945 41.433,393.046 41.782,393.140 42.025 C 393.235 42.267,393.279 42.499,393.238 42.540 C 393.197 42.581,393.271 42.920,393.402 43.292 C 393.534 43.665,393.612 43.999,393.577 44.034 C 393.541 44.070,393.616 44.445,393.744 44.868 C 393.871 45.290,393.941 45.670,393.900 45.711 C 393.859 45.752,393.937 46.259,394.072 46.838 C 394.207 47.417,394.284 47.945,394.243 48.011 C 394.202 48.078,394.248 48.533,394.344 49.024 C 394.518 49.904,394.601 57.869,394.439 58.130 C 394.394 58.204,394.307 58.860,394.247 59.588 C 394.187 60.316,394.108 60.960,394.072 61.018 C 394.036 61.077,393.963 61.486,393.910 61.928 C 393.857 62.370,393.783 62.781,393.745 62.842 C 393.707 62.902,393.639 63.253,393.593 63.620 C 393.546 63.988,393.434 64.486,393.342 64.728 C 393.250 64.969,393.209 65.167,393.250 65.167 C 393.291 65.167,393.253 65.356,393.165 65.588 C 393.077 65.819,392.969 66.175,392.924 66.379 C 392.880 66.583,392.764 67.050,392.667 67.417 C 392.570 67.783,392.460 68.210,392.424 68.364 C 392.387 68.519,392.274 68.800,392.172 68.989 C 392.071 69.178,392.024 69.333,392.068 69.333 C 392.112 69.333,391.966 69.746,391.743 70.250 C 391.520 70.754,391.377 71.167,391.425 71.167 C 391.473 71.167,391.418 71.335,391.303 71.542 C 391.189 71.748,391.086 71.954,391.075 72.000 C 391.064 72.046,390.961 72.308,390.845 72.583 C 390.614 73.133,390.305 73.917,390.319 73.917 C 390.324 73.917,390.034 74.479,389.674 75.167 C 389.314 75.854,388.813 76.829,388.560 77.333 C 388.308 77.837,387.778 78.713,387.384 79.280 C 386.989 79.846,386.667 80.352,386.667 80.404 C 386.667 80.542,385.457 82.228,385.255 82.372 C 385.145 82.451,385.143 82.496,385.250 82.498 C 385.342 82.499,385.199 82.688,384.932 82.917 C 384.666 83.146,384.498 83.333,384.559 83.333 C 384.658 83.333,383.777 84.474,382.903 85.477 C 381.745 86.808,377.827 90.646,377.532 90.740 C 377.335 90.802,377.191 90.905,377.212 90.968 C 377.233 91.032,377.178 91.121,377.091 91.167 C 377.003 91.212,376.777 91.400,376.587 91.583 C 376.397 91.767,375.988 92.104,375.678 92.333 C 375.368 92.563,375.019 92.844,374.902 92.958 C 374.786 93.073,374.644 93.167,374.588 93.167 C 374.493 93.167,374.286 93.320,373.782 93.765 C 373.669 93.865,373.395 94.044,373.174 94.163 C 372.952 94.281,372.691 94.451,372.594 94.540 C 371.650 95.398,364.171 99.219,363.659 99.104 C 363.609 99.093,363.366 99.216,363.118 99.379 C 362.870 99.541,362.667 99.633,362.667 99.583 C 362.667 99.533,362.442 99.608,362.167 99.750 C 361.892 99.892,361.667 99.966,361.667 99.915 C 361.667 99.864,361.512 99.904,361.323 100.006 C 361.133 100.107,360.852 100.215,360.698 100.247 C 360.543 100.278,360.079 100.416,359.667 100.553 C 358.684 100.880,357.804 101.073,357.529 101.021 C 357.408 100.998,357.210 101.062,357.089 101.162 C 356.968 101.262,356.618 101.378,356.310 101.420 C 356.002 101.461,355.563 101.537,355.333 101.589 C 355.104 101.641,354.703 101.714,354.441 101.752 C 354.179 101.791,353.842 101.861,353.691 101.909 C 353.540 101.957,353.041 102.035,352.583 102.083 C 352.125 102.130,351.301 102.234,350.751 102.312 C 349.468 102.496,342.388 102.498,341.082 102.315 C 340.533 102.239,339.708 102.138,339.250 102.091 C 338.792 102.045,338.162 101.933,337.851 101.842 C 337.540 101.751,337.230 101.711,337.161 101.754 C 337.092 101.796,336.716 101.718,336.325 101.580 C 335.934 101.443,335.581 101.363,335.540 101.404 C 335.499 101.445,335.273 101.406,335.038 101.316 C 334.803 101.227,334.417 101.123,334.180 101.086 C 333.944 101.049,333.450 100.937,333.083 100.838 C 332.717 100.738,332.267 100.622,332.083 100.579 C 331.900 100.537,331.225 100.312,330.583 100.079 C 329.942 99.846,329.278 99.623,329.108 99.584 C 328.938 99.545,328.706 99.435,328.593 99.341 C 328.479 99.247,328.337 99.219,328.276 99.279 C 328.216 99.340,328.167 99.314,328.167 99.222 C 328.167 99.131,328.062 99.056,327.935 99.056 C 327.808 99.056,327.452 98.938,327.144 98.795 C 326.835 98.652,326.208 98.373,325.750 98.175 C 324.365 97.577,324.096 97.441,323.792 97.190 C 323.631 97.057,323.500 96.999,323.500 97.061 C 323.500 97.123,323.306 97.047,323.068 96.892 C 322.493 96.514,321.679 96.045,321.167 95.794 C 320.938 95.682,320.712 95.547,320.667 95.495 C 320.621 95.442,320.283 95.219,319.917 95.000 C 319.550 94.781,319.195 94.522,319.128 94.425 C 319.060 94.329,319.004 94.309,319.003 94.382 C 319.000 94.505,318.819 94.382,318.244 93.863 C 318.110 93.742,318.000 93.697,318.000 93.762 C 318.000 93.828,317.820 93.688,317.601 93.451 C 317.381 93.214,317.156 93.066,317.101 93.121 C 317.045 93.177,317.000 93.135,317.000 93.028 C 317.000 92.921,316.920 92.833,316.821 92.833 C 316.723 92.833,316.546 92.740,316.428 92.625 C 316.310 92.510,315.932 92.196,315.588 91.925 C 313.801 90.520,313.181 89.959,311.364 88.108 C 310.568 87.296,309.730 86.452,309.502 86.233 C 309.273 86.013,309.145 85.833,309.217 85.833 C 309.288 85.833,309.044 85.536,308.673 85.173 C 308.303 84.810,308.000 84.473,308.000 84.423 C 308.000 84.374,307.869 84.195,307.708 84.025 C 307.245 83.535,306.973 83.170,306.013 81.750 C 305.517 81.017,305.043 80.371,304.958 80.315 C 304.874 80.259,304.802 80.146,304.798 80.065 C 304.794 79.983,304.522 79.504,304.194 79.000 C 303.866 78.496,303.591 78.046,303.583 78.000 C 303.529 77.702,302.518 75.876,302.167 75.441 C 302.029 75.271,301.937 75.101,301.962 75.064 C 301.988 75.027,301.805 74.566,301.557 74.040 C 301.309 73.514,301.091 73.027,301.074 72.958 C 301.056 72.890,301.023 72.796,301.000 72.750 C 300.977 72.704,300.942 72.610,300.922 72.542 C 300.903 72.473,300.751 72.117,300.586 71.750 C 300.421 71.383,300.285 70.971,300.284 70.833 C 300.283 70.696,300.218 70.540,300.138 70.488 C 300.058 70.435,299.961 70.229,299.922 70.029 C 299.884 69.829,299.806 69.591,299.750 69.500 C 299.694 69.409,299.621 69.203,299.589 69.042 C 299.556 68.882,299.405 68.385,299.252 67.938 C 298.943 67.039,298.841 66.642,298.740 65.952 C 298.702 65.697,298.598 65.350,298.508 65.182 C 298.419 65.014,298.382 64.840,298.427 64.795 C 298.472 64.750,298.436 64.519,298.345 64.281 C 298.255 64.044,298.144 63.565,298.098 63.217 C 298.052 62.868,297.939 62.329,297.846 62.018 C 297.753 61.707,297.707 61.403,297.744 61.342 C 297.782 61.282,297.747 60.936,297.666 60.574 C 297.113 58.087,297.117 49.082,297.672 47.147 C 297.756 46.857,297.792 46.568,297.753 46.505 C 297.714 46.441,297.788 45.987,297.918 45.494 C 298.048 45.002,298.125 44.570,298.090 44.534 C 298.054 44.499,298.133 44.165,298.264 43.792 C 298.396 43.420,298.470 43.081,298.429 43.040 C 298.388 42.999,298.424 42.784,298.508 42.562 C 298.593 42.340,298.698 41.957,298.743 41.712 C 298.936 40.647,300.095 37.065,300.456 36.417 C 300.609 36.142,300.723 35.899,300.708 35.878 C 300.693 35.857,300.785 35.590,300.913 35.285 C 301.040 34.981,301.194 34.533,301.255 34.289 C 301.316 34.046,301.471 33.760,301.600 33.653 C 301.728 33.546,301.833 33.368,301.833 33.256 C 301.833 33.049,302.483 31.742,303.328 30.250 C 303.587 29.792,303.928 29.173,304.086 28.875 C 304.243 28.577,304.442 28.333,304.529 28.333 C 304.615 28.333,304.649 28.272,304.603 28.198 C 304.557 28.123,304.700 27.852,304.921 27.594 C 305.143 27.337,305.369 26.985,305.423 26.813 C 305.478 26.641,305.597 26.500,305.688 26.500 C 305.779 26.500,305.807 26.425,305.750 26.333 C 305.693 26.242,305.726 26.167,305.823 26.167 C 305.921 26.167,306.000 26.054,306.000 25.917 C 306.000 25.779,306.067 25.667,306.149 25.667 C 306.231 25.667,306.543 25.286,306.842 24.820 C 307.141 24.354,307.671 23.676,308.019 23.313 C 308.368 22.950,308.659 22.622,308.667 22.583 C 308.728 22.262,312.512 18.407,314.148 16.999 C 314.733 16.496,315.333 15.964,315.481 15.819 C 315.888 15.418,317.286 14.500,317.488 14.500 C 317.586 14.500,317.667 14.387,317.667 14.250 C 317.667 14.112,317.779 14.000,317.917 14.000 C 318.054 14.000,318.167 13.921,318.167 13.823 C 318.167 13.726,318.242 13.693,318.333 13.750 C 318.425 13.807,318.500 13.779,318.500 13.688 C 318.500 13.597,318.641 13.478,318.813 13.423 C 318.985 13.369,319.337 13.143,319.594 12.921 C 319.852 12.700,320.117 12.553,320.184 12.594 C 320.250 12.635,320.330 12.601,320.361 12.519 C 320.429 12.335,321.325 11.786,322.333 11.309 C 322.746 11.114,323.271 10.829,323.500 10.677 C 323.729 10.524,324.254 10.257,324.667 10.085 C 325.079 9.912,325.529 9.678,325.667 9.564 C 325.804 9.450,325.972 9.350,326.040 9.341 C 326.195 9.320,326.599 9.178,327.295 8.899 C 327.594 8.779,327.874 8.674,327.916 8.666 C 327.959 8.658,328.408 8.468,328.914 8.244 C 329.421 8.020,329.891 7.827,329.959 7.814 C 330.097 7.788,330.380 7.703,331.000 7.498 C 331.677 7.275,332.406 7.110,332.559 7.145 C 332.638 7.163,332.791 7.105,332.899 7.014 C 333.008 6.924,333.334 6.809,333.623 6.758 C 333.913 6.707,334.333 6.595,334.558 6.510 C 334.782 6.424,334.999 6.388,335.040 6.429 C 335.081 6.470,335.420 6.396,335.792 6.264 C 336.165 6.133,336.499 6.054,336.534 6.090 C 336.570 6.125,337.002 6.048,337.494 5.918 C 337.987 5.788,338.437 5.711,338.496 5.747 C 338.554 5.783,338.897 5.746,339.259 5.665 C 339.621 5.584,340.629 5.470,341.499 5.413 C 342.369 5.355,343.119 5.268,343.165 5.219 C 343.251 5.127,349.296 5.282,350.667 5.410 M342.410 16.917 C 342.179 17.421,341.913 17.833,341.819 17.833 C 341.724 17.833,341.684 17.894,341.730 17.967 C 341.806 18.091,341.114 18.875,340.358 19.522 C 339.370 20.367,337.125 20.524,335.844 19.839 C 335.655 19.738,335.500 19.698,335.500 19.750 C 335.500 19.802,335.331 19.750,335.125 19.634 C 334.919 19.518,334.637 19.411,334.500 19.397 C 334.362 19.383,333.462 19.110,332.500 18.789 C 329.611 17.827,329.246 17.869,330.667 19.000 C 330.955 19.229,331.363 19.567,331.574 19.750 C 332.338 20.415,332.667 20.662,332.667 20.570 C 332.667 20.518,332.777 20.575,332.911 20.696 C 333.468 21.199,333.744 21.415,333.786 21.380 C 333.987 21.210,335.332 22.120,336.194 23.008 C 337.097 23.939,337.488 24.963,337.566 26.608 C 337.582 26.947,337.608 26.953,338.057 26.720 C 338.702 26.387,338.738 26.498,338.191 27.138 C 337.785 27.614,337.733 27.803,337.757 28.714 C 337.773 29.284,337.685 30.270,337.562 30.905 C 337.439 31.541,337.370 32.092,337.409 32.131 C 337.447 32.169,337.403 32.399,337.310 32.642 C 337.218 32.885,337.113 33.307,337.078 33.581 C 337.043 33.855,336.928 34.440,336.822 34.882 C 336.604 35.788,336.655 35.913,337.171 35.749 C 337.458 35.657,338.095 34.633,338.257 34.000 C 338.315 33.775,338.570 33.240,338.655 33.167 C 338.778 33.059,339.103 32.483,339.714 31.292 C 340.149 30.443,340.500 30.075,340.500 30.469 C 340.500 30.543,340.653 30.768,340.840 30.969 C 341.027 31.169,341.139 31.333,341.090 31.333 C 341.041 31.333,341.263 31.611,341.584 31.951 C 341.904 32.291,342.167 32.655,342.167 32.759 C 342.167 32.926,342.329 33.159,342.997 33.951 C 343.090 34.062,343.167 34.228,343.167 34.320 C 343.167 34.543,343.726 34.833,344.155 34.833 C 344.525 34.833,344.547 34.516,344.217 33.917 C 344.116 33.733,344.027 33.527,344.019 33.458 C 343.980 33.088,343.776 32.339,343.554 31.750 C 343.416 31.383,343.322 31.083,343.347 31.083 C 343.386 31.083,343.079 29.991,342.651 28.606 C 342.570 28.343,342.541 28.068,342.587 27.995 C 342.632 27.921,342.598 27.676,342.512 27.449 C 342.056 26.248,341.982 22.869,342.398 22.196 C 342.511 22.014,342.539 21.868,342.746 20.420 C 342.798 20.055,342.907 19.493,342.988 19.170 C 343.207 18.299,343.220 16.000,343.006 16.000 C 342.909 16.000,342.640 16.412,342.410 16.917 M336.779 17.007 C 336.311 17.375,336.064 18.236,336.234 18.911 C 336.630 20.491,339.122 20.377,339.425 18.765 C 339.727 17.156,338.026 16.026,336.779 17.007 M321.703 21.437 C 321.629 22.331,320.968 23.498,320.270 23.966 C 318.241 25.328,315.620 26.077,314.500 25.616 C 314.271 25.522,314.046 25.436,314.000 25.425 C 313.646 25.340,312.972 24.843,312.385 24.232 C 311.763 23.583,311.676 23.540,311.584 23.831 C 311.463 24.212,311.983 25.455,312.437 25.870 C 312.609 26.028,313.012 26.400,313.333 26.697 C 313.654 26.994,313.935 27.221,313.958 27.202 C 314.168 27.025,315.222 27.912,315.403 28.417 C 315.818 29.578,315.826 33.838,315.414 34.505 C 315.101 35.011,315.174 35.463,315.582 35.540 C 316.017 35.624,316.242 35.337,317.149 33.542 C 317.602 32.645,317.942 32.715,318.156 33.750 C 318.175 33.842,318.309 34.048,318.454 34.208 C 318.600 34.369,318.658 34.500,318.583 34.500 C 318.509 34.500,318.573 34.637,318.725 34.805 C 318.876 34.973,318.961 35.150,318.913 35.198 C 318.865 35.246,318.940 35.381,319.079 35.497 C 319.219 35.613,319.333 35.832,319.333 35.985 C 319.333 36.173,319.493 36.275,319.830 36.300 C 320.302 36.336,320.319 36.316,320.160 35.899 C 319.998 35.474,319.820 34.559,319.781 33.958 C 319.770 33.798,319.719 33.667,319.667 33.667 C 319.614 33.667,319.564 33.535,319.555 33.375 C 319.536 33.026,319.366 31.917,319.332 31.917 C 319.319 31.917,319.283 31.804,319.253 31.667 C 319.223 31.529,319.144 31.192,319.077 30.917 C 319.010 30.642,318.921 29.713,318.878 28.854 L 318.800 27.291 320.104 25.979 C 320.822 25.257,321.359 24.667,321.297 24.667 C 321.236 24.667,321.324 24.348,321.493 23.958 C 321.842 23.155,322.103 21.250,321.883 21.114 C 321.803 21.065,321.722 21.210,321.703 21.437 M315.896 22.721 C 314.924 23.876,316.004 25.551,317.358 24.990 C 318.311 24.595,318.607 23.081,317.815 22.657 C 317.637 22.561,317.523 22.431,317.563 22.367 C 317.813 21.961,316.257 22.292,315.896 22.721 " stroke="none" fill="#6d65ae" fill-rule="evenodd"></path><path id="path3" d="M275.000 22.111 C 269.991 23.817,271.252 31.120,276.500 30.800 C 280.579 30.551,282.251 25.337,279.037 22.889 C 278.017 22.112,276.089 21.741,275.000 22.111 M332.411 25.501 C 331.221 25.953,331.460 27.814,332.710 27.830 C 333.291 27.837,333.962 26.975,333.812 26.414 C 333.649 25.805,332.898 25.316,332.411 25.501 M328.422 26.208 C 328.693 27.122,329.450 28.435,330.160 29.225 C 330.752 29.884,330.924 30.199,330.900 30.583 C 330.859 31.236,330.703 32.141,330.602 32.303 C 330.559 32.373,330.477 32.947,330.420 33.578 C 330.363 34.209,330.283 34.780,330.241 34.848 C 330.200 34.915,330.128 35.365,330.082 35.847 C 330.036 36.329,329.973 36.749,329.943 36.780 C 329.573 37.149,323.414 36.995,321.667 36.573 C 321.438 36.517,320.950 36.442,320.583 36.405 C 320.217 36.368,319.729 36.297,319.500 36.246 C 319.271 36.195,318.802 36.124,318.458 36.088 C 318.114 36.052,317.701 35.980,317.539 35.929 C 317.378 35.878,317.022 35.802,316.748 35.761 C 316.474 35.720,315.762 35.605,315.167 35.505 C 314.571 35.404,313.844 35.287,313.552 35.244 C 313.259 35.201,312.836 35.096,312.610 35.010 C 312.385 34.925,312.166 34.889,312.124 34.932 C 312.081 34.975,311.844 34.933,311.598 34.839 C 311.351 34.745,310.872 34.632,310.533 34.588 C 310.194 34.544,309.679 34.438,309.388 34.352 C 309.097 34.267,308.826 34.230,308.786 34.270 C 308.746 34.310,308.516 34.268,308.275 34.176 C 307.474 33.872,304.874 33.633,304.739 33.851 C 304.695 33.922,304.856 34.115,305.096 34.281 C 305.336 34.447,305.675 34.715,305.849 34.875 C 306.024 35.035,306.185 35.152,306.208 35.134 C 306.231 35.116,306.700 35.361,307.250 35.677 C 307.800 35.994,308.438 36.343,308.667 36.452 C 309.135 36.677,310.372 37.209,310.500 37.241 C 310.546 37.252,310.752 37.356,310.958 37.470 C 311.165 37.585,311.333 37.642,311.333 37.598 C 311.333 37.553,311.613 37.634,311.954 37.776 C 312.295 37.919,312.762 38.070,312.992 38.111 C 313.222 38.153,313.466 38.276,313.536 38.385 C 313.605 38.494,313.663 38.535,313.664 38.476 C 313.666 38.417,313.948 38.438,314.292 38.522 C 314.635 38.607,315.125 38.708,315.379 38.747 C 315.633 38.787,315.907 38.859,315.987 38.909 C 316.067 38.958,316.451 39.039,316.840 39.088 C 317.230 39.137,317.606 39.212,317.676 39.256 C 317.747 39.300,318.130 39.370,318.527 39.412 C 318.925 39.453,319.662 39.544,320.167 39.612 C 321.370 39.776,329.799 39.774,331.083 39.610 C 331.633 39.540,332.467 39.451,332.936 39.413 C 333.406 39.376,334.147 39.264,334.584 39.167 C 335.020 39.069,335.408 39.019,335.445 39.056 C 335.482 39.093,335.976 39.026,336.543 38.908 C 337.110 38.789,337.621 38.722,337.680 38.758 C 337.738 38.794,338.040 38.751,338.350 38.662 C 338.661 38.573,339.358 38.460,339.900 38.411 C 340.441 38.362,340.937 38.289,341.001 38.249 C 341.128 38.171,344.385 37.929,345.333 37.927 C 346.479 37.925,348.821 38.170,349.263 38.338 C 349.510 38.432,349.750 38.473,349.794 38.428 C 349.839 38.383,350.091 38.458,350.354 38.594 C 350.618 38.730,350.833 38.801,350.833 38.750 C 350.833 38.699,351.058 38.774,351.332 38.916 C 351.606 39.057,351.867 39.175,351.912 39.177 C 352.214 39.189,353.857 40.094,354.833 40.786 C 355.379 41.173,357.333 43.085,357.333 43.233 C 357.333 43.296,357.413 43.438,357.510 43.549 C 357.710 43.776,358.393 44.873,358.415 45.000 C 358.423 45.046,358.565 45.383,358.732 45.750 C 359.270 46.938,359.479 47.512,359.505 47.873 C 359.509 47.940,359.619 48.296,359.749 48.664 C 359.879 49.032,359.958 49.333,359.926 49.333 C 359.893 49.333,359.970 49.680,360.098 50.103 C 360.225 50.526,360.297 50.924,360.258 50.987 C 360.219 51.050,360.258 51.398,360.344 51.759 C 360.430 52.121,360.542 53.223,360.592 54.208 L 360.683 56.000 360.008 56.000 L 359.333 56.000 359.306 55.208 C 359.291 54.773,359.265 54.004,359.248 53.500 C 359.232 52.996,359.167 52.423,359.104 52.227 C 359.041 52.032,358.956 51.610,358.915 51.289 C 358.874 50.969,358.762 50.500,358.666 50.247 C 358.569 49.994,358.527 49.750,358.572 49.706 C 358.617 49.661,358.542 49.409,358.406 49.146 C 358.270 48.882,358.199 48.667,358.250 48.667 C 358.300 48.667,358.218 48.479,358.068 48.250 C 357.918 48.021,357.838 47.833,357.890 47.833 C 358.015 47.833,356.932 45.794,356.548 45.306 C 355.016 43.358,351.753 41.095,349.969 40.745 C 349.815 40.715,349.533 40.607,349.344 40.506 C 349.155 40.404,349.000 40.360,349.000 40.407 C 349.000 40.453,348.794 40.407,348.542 40.304 C 347.687 39.955,343.155 39.996,341.788 40.366 C 341.125 40.544,340.508 40.707,340.417 40.727 C 340.325 40.747,339.725 41.013,339.083 41.318 C 338.442 41.623,337.917 41.846,337.917 41.814 C 337.917 41.713,336.790 42.711,335.544 43.917 C 334.880 44.558,334.336 45.146,334.335 45.222 C 334.334 45.298,334.076 45.748,333.762 46.222 C 333.289 46.936,332.550 48.574,332.396 49.250 C 331.598 52.748,331.808 55.768,333.053 58.711 C 333.199 59.057,333.323 59.375,333.329 59.418 C 333.334 59.462,333.485 59.742,333.665 60.040 C 333.845 60.339,334.153 60.883,334.351 61.250 C 334.549 61.617,334.760 61.954,334.818 62.000 C 334.877 62.046,335.174 62.403,335.479 62.795 C 336.290 63.837,338.978 65.738,339.793 65.845 C 339.861 65.854,340.003 65.933,340.108 66.020 C 340.213 66.108,340.438 66.211,340.608 66.250 C 342.629 66.716,343.416 66.814,345.121 66.809 C 346.201 66.806,347.383 66.740,347.750 66.661 C 348.117 66.583,348.642 66.478,348.917 66.428 C 350.026 66.226,350.211 66.171,350.459 65.965 C 350.602 65.847,350.745 65.770,350.777 65.795 C 350.867 65.863,351.828 65.347,352.613 64.810 C 353.525 64.186,353.529 64.188,353.439 65.208 C 353.323 66.528,352.453 68.812,351.917 69.206 C 351.825 69.273,351.806 69.329,351.873 69.331 C 352.132 69.336,349.819 71.785,348.995 72.380 C 348.141 72.995,346.421 73.969,346.000 74.076 C 345.954 74.088,345.550 74.263,345.102 74.466 C 344.653 74.669,344.128 74.866,343.935 74.904 C 343.742 74.942,343.081 75.164,342.468 75.398 C 341.854 75.632,341.179 75.859,340.968 75.902 C 340.756 75.945,340.058 76.138,339.417 76.331 C 338.775 76.523,338.063 76.708,337.833 76.742 C 337.604 76.776,337.210 76.884,336.958 76.981 C 336.706 77.079,336.500 77.126,336.500 77.087 C 336.500 77.047,336.207 77.118,335.848 77.245 C 335.490 77.371,335.159 77.437,335.113 77.390 C 335.066 77.344,334.891 77.380,334.723 77.470 C 334.554 77.560,334.154 77.676,333.833 77.729 C 333.512 77.782,333.012 77.895,332.721 77.981 C 332.430 78.066,332.159 78.103,332.119 78.063 C 332.079 78.023,331.861 78.061,331.634 78.147 C 331.190 78.316,330.287 78.484,329.294 78.582 C 328.952 78.616,328.605 78.685,328.523 78.736 C 328.442 78.786,328.043 78.867,327.637 78.916 C 327.231 78.965,326.648 79.076,326.342 79.164 C 326.036 79.252,325.732 79.291,325.667 79.250 C 325.601 79.209,325.293 79.252,324.982 79.344 C 324.671 79.436,324.042 79.550,323.583 79.597 C 323.125 79.645,322.454 79.750,322.092 79.832 C 321.731 79.913,321.386 79.949,321.327 79.913 C 321.267 79.876,320.963 79.914,320.651 79.998 C 320.339 80.081,319.606 80.192,319.023 80.243 C 318.440 80.294,317.915 80.365,317.857 80.400 C 317.746 80.466,315.682 80.690,314.667 80.747 C 314.346 80.764,313.726 80.837,313.288 80.909 C 312.851 80.980,312.176 81.057,311.788 81.078 C 310.189 81.167,308.821 81.387,308.966 81.532 C 309.317 81.883,325.420 81.730,328.665 81.345 C 329.352 81.263,329.966 81.229,330.029 81.268 C 330.093 81.307,330.656 81.264,331.281 81.172 C 331.906 81.080,332.792 80.971,333.250 80.929 C 333.708 80.887,334.721 80.771,335.500 80.670 C 336.279 80.570,337.217 80.455,337.583 80.414 C 337.950 80.373,338.504 80.266,338.815 80.175 C 339.126 80.084,339.439 80.046,339.510 80.089 C 339.581 80.133,339.829 80.097,340.061 80.008 C 340.293 79.920,340.768 79.813,341.117 79.770 C 341.465 79.728,341.956 79.614,342.208 79.517 C 342.460 79.421,342.667 79.374,342.667 79.413 C 342.667 79.453,342.968 79.379,343.336 79.249 C 343.704 79.119,344.042 79.016,344.088 79.019 C 344.284 79.033,345.305 78.784,346.000 78.553 C 346.412 78.416,346.876 78.278,347.031 78.247 C 347.185 78.215,347.467 78.107,347.656 78.006 C 347.845 77.904,348.000 77.870,348.000 77.930 C 348.000 77.990,348.188 77.915,348.417 77.765 C 348.646 77.615,348.833 77.534,348.833 77.585 C 348.833 77.637,349.002 77.585,349.208 77.470 C 349.415 77.356,349.633 77.259,349.694 77.256 C 349.756 77.253,349.862 77.194,349.931 77.125 C 349.999 77.056,351.862 76.999,354.069 76.999 C 356.277 76.998,358.533 76.927,359.083 76.842 C 360.238 76.662,361.172 76.505,361.430 76.446 C 361.529 76.424,361.814 76.201,362.065 75.951 C 362.479 75.536,362.543 75.519,362.783 75.759 C 363.872 76.848,365.173 76.987,374.344 76.994 C 382.214 77.000,383.184 76.929,384.583 76.237 C 385.457 75.805,386.647 75.000,386.412 75.000 C 386.337 75.000,386.428 74.831,386.614 74.625 C 386.958 74.243,387.478 73.286,387.586 72.833 C 388.065 70.834,388.066 70.515,387.593 68.631 C 387.213 67.116,385.527 65.413,383.750 64.748 C 382.637 64.331,383.029 64.358,376.355 64.249 C 369.678 64.140,369.866 64.176,368.450 62.739 C 367.317 61.591,366.520 61.725,366.257 63.109 C 366.071 64.090,367.119 65.979,368.189 66.593 C 368.950 67.030,370.464 67.711,370.822 67.776 C 371.044 67.817,371.284 67.886,371.355 67.930 C 371.425 67.973,374.036 68.040,377.158 68.078 C 383.241 68.153,383.420 68.178,384.051 69.030 C 384.438 69.554,384.499 71.379,384.151 72.029 C 384.037 72.242,383.950 72.454,383.957 72.500 C 383.994 72.739,383.406 73.468,382.944 73.755 C 382.441 74.068,382.045 74.085,374.259 74.125 L 366.101 74.166 365.617 73.708 C 365.144 73.260,364.870 72.754,364.738 72.083 C 364.702 71.900,364.622 71.525,364.560 71.250 C 364.498 70.975,364.440 68.077,364.432 64.811 L 364.417 58.871 365.583 58.658 C 368.173 58.186,369.836 56.750,370.225 54.653 C 370.266 54.431,370.357 53.950,370.427 53.583 C 370.497 53.217,370.561 51.287,370.569 49.295 L 370.583 45.672 369.802 45.336 C 368.903 44.949,368.683 44.932,367.840 45.184 C 366.870 45.475,366.850 45.571,366.826 50.028 C 366.799 54.886,366.563 55.596,364.856 55.937 L 364.365 56.035 364.251 54.809 C 364.188 54.135,364.116 53.208,364.090 52.750 C 364.024 51.580,363.846 50.290,363.550 48.833 C 363.410 48.146,363.274 47.433,363.247 47.250 C 363.220 47.067,363.118 46.710,363.020 46.458 C 362.922 46.206,362.879 46.000,362.925 46.000 C 362.971 46.000,362.892 45.775,362.750 45.500 C 362.608 45.225,362.533 45.000,362.583 45.000 C 362.633 45.000,362.554 44.816,362.407 44.592 C 362.260 44.368,362.147 44.142,362.156 44.091 C 362.195 43.862,360.935 41.333,360.782 41.333 C 360.688 41.333,360.655 41.289,360.709 41.236 C 361.121 40.823,357.281 37.524,355.167 36.474 C 354.571 36.178,354.039 35.871,353.985 35.793 C 353.930 35.714,353.818 35.666,353.735 35.687 C 353.651 35.708,353.246 35.629,352.833 35.511 C 352.421 35.393,351.901 35.264,351.678 35.223 C 351.456 35.183,351.213 35.112,351.140 35.067 C 350.517 34.682,342.316 34.682,341.694 35.066 C 341.617 35.114,341.261 35.165,340.902 35.181 C 340.544 35.197,339.987 35.271,339.667 35.347 C 339.346 35.422,338.783 35.520,338.417 35.565 C 338.050 35.610,337.188 35.733,336.500 35.839 C 334.107 36.207,334.046 36.204,333.928 35.736 C 333.870 35.506,333.867 35.246,333.921 35.159 C 333.975 35.072,333.945 35.000,333.854 35.000 C 333.753 35.000,333.689 34.245,333.690 33.083 C 333.692 32.029,333.743 31.167,333.805 31.166 C 333.866 31.166,333.934 30.927,333.954 30.635 C 334.000 29.988,334.317 29.642,334.897 29.609 C 335.137 29.595,335.333 29.541,335.333 29.489 C 335.333 29.437,335.652 29.217,336.042 29.000 C 336.757 28.602,338.756 26.701,338.612 26.556 C 338.569 26.514,338.001 26.747,337.350 27.075 C 336.699 27.403,336.167 27.623,336.167 27.565 C 336.167 27.507,336.065 27.544,335.940 27.647 C 335.479 28.030,334.112 28.304,332.663 28.304 L 331.170 28.304 330.297 27.527 C 329.816 27.100,329.246 26.544,329.030 26.292 C 328.553 25.736,328.270 25.697,328.422 26.208 M11.440 29.402 C 7.099 31.456,8.439 37.833,13.211 37.833 C 15.988 37.833,17.721 36.115,17.710 33.373 C 17.697 30.160,14.336 28.032,11.440 29.402 M21.250 29.406 C 18.467 30.696,17.806 34.269,19.913 36.633 C 21.449 38.357,24.774 38.304,26.371 36.530 C 29.643 32.898,25.662 27.360,21.250 29.406 M147.581 29.399 C 144.725 30.699,144.079 34.368,146.296 36.709 C 147.831 38.331,151.166 38.267,152.641 36.587 C 155.922 32.850,152.059 27.362,147.581 29.399 M157.168 29.544 C 155.441 30.407,154.577 32.256,154.915 34.360 C 155.652 38.930,162.520 39.112,163.552 34.588 C 164.447 30.663,160.758 27.748,157.168 29.544 M238.583 29.271 C 234.798 30.236,234.327 35.869,237.890 37.560 C 239.437 38.294,242.071 37.806,243.141 36.587 C 246.126 33.187,242.988 28.149,238.583 29.271 M73.833 46.000 L 73.833 62.000 68.458 61.999 L 63.083 61.998 63.042 56.612 C 62.946 44.025,62.670 42.836,59.572 41.677 C 58.199 41.163,48.554 41.156,46.163 41.668 C 44.859 41.946,42.304 42.960,42.000 43.319 C 41.954 43.373,41.713 43.522,41.464 43.651 C 40.647 44.071,38.290 46.473,37.822 47.361 C 37.709 47.575,37.568 47.788,37.509 47.833 C 37.339 47.965,36.558 49.666,36.247 50.583 C 35.250 53.521,35.203 58.947,36.144 62.333 C 36.562 63.840,37.273 65.530,37.534 65.639 C 37.607 65.669,37.668 65.782,37.669 65.889 C 37.677 66.577,40.319 68.849,42.000 69.613 C 44.207 70.617,47.632 71.045,50.530 70.679 C 51.201 70.594,52.149 70.485,52.637 70.436 L 53.524 70.346 53.409 70.881 C 52.958 72.992,51.862 74.670,50.083 75.972 C 48.987 76.775,45.581 77.656,43.542 77.663 L 42.667 77.667 42.667 81.833 L 42.667 86.000 44.292 86.000 C 46.228 86.000,49.866 85.328,50.583 84.838 C 50.675 84.775,51.125 84.587,51.583 84.418 C 53.388 83.757,55.782 82.022,57.169 80.371 C 57.580 79.882,58.003 79.386,58.110 79.268 C 58.524 78.810,59.472 77.183,60.132 75.798 C 60.738 74.527,61.112 73.483,61.867 70.958 L 62.053 70.333 91.693 70.333 L 121.333 70.333 121.333 66.167 L 121.333 62.000 119.935 62.000 L 118.537 62.000 118.442 61.458 C 118.390 61.160,118.300 60.429,118.242 59.833 C 117.095 47.938,110.413 42.480,96.000 41.663 C 94.396 41.572,92.626 41.452,92.068 41.395 L 91.052 41.292 90.935 42.438 C 90.798 43.770,90.356 49.741,90.392 49.768 C 90.406 49.778,92.517 49.871,95.083 49.974 C 100.477 50.192,101.709 50.424,104.248 51.700 C 107.382 53.276,109.415 56.637,109.898 61.042 L 110.003 62.000 96.085 62.000 L 82.167 62.000 82.167 46.000 L 82.167 30.000 78.000 30.000 L 73.833 30.000 73.833 46.000 M252.139 47.875 C 252.108 68.513,252.079 67.215,252.583 68.087 C 253.906 70.380,252.994 70.250,267.750 70.250 C 281.752 70.250,280.981 70.307,282.091 69.196 C 283.519 67.769,283.419 68.943,283.371 54.042 L 283.333 42.333 279.167 42.333 L 275.000 42.333 275.000 52.167 L 275.000 62.000 267.750 62.000 L 260.500 62.000 260.500 46.000 L 260.500 30.000 256.333 30.000 L 252.167 30.000 252.139 47.875 M269.833 30.435 C 265.812 31.964,265.483 37.086,269.296 38.777 C 274.456 41.064,278.134 33.338,273.128 30.728 C 272.582 30.443,270.336 30.244,269.833 30.435 M279.791 30.561 C 276.456 31.805,275.951 36.489,278.940 38.447 C 282.574 40.828,287.255 36.931,285.516 32.972 C 284.595 30.875,281.944 29.758,279.791 30.561 M372.652 31.818 C 372.302 32.110,372.095 51.357,372.422 53.250 C 372.501 53.708,372.551 54.142,372.531 54.213 C 372.512 54.285,372.612 54.566,372.753 54.838 C 372.893 55.111,372.970 55.333,372.924 55.333 C 372.807 55.333,373.450 56.473,373.914 57.088 C 374.786 58.245,377.552 59.061,379.286 58.673 C 379.816 58.555,380.250 58.481,380.250 58.510 C 380.250 58.717,382.754 57.186,382.969 56.847 C 383.119 56.610,383.283 56.379,383.333 56.333 C 383.477 56.201,383.882 55.282,383.957 54.917 C 384.086 54.293,384.141 54.083,384.175 54.083 C 384.273 54.083,384.338 52.901,384.430 49.500 C 384.554 44.887,384.634 45.083,382.627 45.083 C 380.584 45.083,380.701 44.806,380.653 49.766 C 380.609 54.231,380.548 54.626,379.789 55.351 C 378.564 56.522,376.854 55.981,376.218 54.221 C 376.072 53.819,376.015 50.821,376.003 43.044 C 375.986 31.985,375.981 31.752,375.734 31.747 C 375.651 31.746,375.490 31.686,375.377 31.614 C 375.009 31.380,372.998 31.531,372.652 31.818 M332.397 35.911 C 332.765 36.471,332.749 36.500,332.083 36.500 C 331.426 36.500,331.429 36.505,331.693 35.925 C 331.935 35.395,332.058 35.393,332.397 35.911 M379.288 36.606 C 377.931 37.317,378.777 39.635,380.258 39.263 C 381.571 38.933,381.767 36.693,380.502 36.486 C 379.943 36.395,379.632 36.426,379.288 36.606 M310.056 39.875 C 309.270 40.121,309.030 41.530,309.667 42.167 C 310.518 43.018,312.045 42.390,312.045 41.189 C 312.045 40.081,311.193 39.518,310.056 39.875 M314.750 39.873 C 314.475 39.968,314.231 40.060,314.209 40.078 C 314.186 40.096,314.102 40.460,314.022 40.888 C 313.712 42.545,315.931 43.285,316.577 41.740 C 317.104 40.478,316.069 39.419,314.750 39.873 M364.585 39.793 C 363.743 39.996,363.338 41.517,363.964 42.125 C 364.838 42.973,366.157 42.515,366.272 41.323 C 366.378 40.225,365.626 39.543,364.585 39.793 M377.348 39.799 C 376.283 39.971,375.937 41.603,376.821 42.286 C 377.183 42.567,378.348 42.541,378.740 42.245 C 378.918 42.110,378.997 42.000,378.915 42.000 C 378.834 42.000,378.857 41.910,378.967 41.800 C 379.347 41.420,379.041 39.949,378.583 39.957 C 378.492 39.959,378.267 39.909,378.083 39.847 C 377.900 39.785,377.569 39.763,377.348 39.799 M382.015 39.800 C 380.894 39.977,380.570 41.539,381.498 42.286 C 382.022 42.709,383.817 42.372,383.730 41.868 C 383.718 41.803,383.748 41.648,383.796 41.523 C 384.145 40.614,383.123 39.625,382.015 39.800 M14.750 41.574 C 9.828 42.566,5.527 46.509,4.292 51.164 C 3.695 53.411,3.367 64.191,3.850 65.683 C 4.579 67.940,6.165 69.186,9.413 70.055 C 11.100 70.506,21.580 70.601,23.833 70.186 C 28.895 69.254,30.356 68.503,30.958 66.523 C 31.234 65.617,31.260 46.011,30.987 45.150 C 30.379 43.238,29.407 42.206,27.629 41.586 C 26.707 41.265,16.333 41.256,14.750 41.574 M150.157 41.651 C 144.907 42.814,140.996 46.737,139.755 52.086 C 139.342 53.870,139.388 65.987,139.812 66.920 C 140.565 68.579,141.333 69.002,145.083 69.828 C 146.839 70.215,150.280 70.615,153.292 70.782 L 155.000 70.877 155.000 66.711 L 155.000 62.545 154.227 62.439 C 153.801 62.381,153.026 62.333,152.505 62.333 C 151.983 62.333,151.149 62.261,150.653 62.172 C 150.156 62.083,149.319 61.965,148.792 61.910 L 147.833 61.809 147.833 58.009 C 147.833 53.838,147.910 53.387,148.854 52.000 C 150.154 50.091,151.352 49.667,155.438 49.667 L 158.484 49.667 158.533 58.458 C 158.584 67.451,158.596 67.618,159.209 68.417 C 159.279 68.508,159.499 68.799,159.697 69.063 C 159.895 69.326,160.438 69.719,160.904 69.936 L 161.750 70.330 175.528 70.332 C 190.991 70.334,190.133 70.400,191.433 69.100 C 192.723 67.811,192.667 68.462,192.667 54.736 L 192.667 42.500 188.500 42.500 L 184.333 42.500 184.333 52.250 L 184.333 62.000 175.670 62.000 L 167.006 62.000 166.921 61.625 C 166.875 61.419,166.817 57.612,166.793 53.167 C 166.750 45.144,166.747 45.078,166.373 44.333 C 165.696 42.988,164.665 42.063,163.320 41.595 C 162.209 41.208,151.962 41.252,150.157 41.651 M207.917 41.602 C 205.163 42.145,202.264 43.846,200.500 45.955 C 200.088 46.448,199.670 46.941,199.573 47.051 C 198.939 47.765,197.922 50.057,197.377 52.000 C 196.995 53.362,197.000 59.284,197.385 61.038 C 199.084 68.777,203.948 71.608,213.660 70.508 C 215.357 70.316,215.242 70.217,214.817 71.510 C 213.514 75.478,210.129 77.646,205.208 77.664 L 204.333 77.667 204.333 81.833 L 204.333 86.000 205.987 86.000 C 212.515 86.000,218.531 82.284,221.366 76.500 C 222.336 74.520,223.500 71.329,223.500 70.648 C 223.500 70.354,223.907 70.339,233.463 70.295 L 243.426 70.250 244.253 69.824 C 246.536 68.649,246.498 68.908,246.499 54.542 L 246.500 42.333 242.333 42.333 L 238.167 42.333 238.167 52.167 L 238.167 62.000 231.440 62.000 L 224.714 62.000 224.596 56.042 C 224.343 43.161,224.226 42.700,220.929 41.606 C 219.830 41.241,209.763 41.238,207.917 41.602 M347.083 43.707 C 348.913 44.065,352.000 46.129,352.000 46.996 C 352.000 47.090,352.079 47.167,352.177 47.167 C 352.274 47.167,352.307 47.242,352.250 47.333 C 352.193 47.425,352.225 47.500,352.319 47.500 C 352.536 47.500,353.401 49.407,353.378 49.833 C 353.375 49.879,353.446 50.104,353.534 50.333 C 354.009 51.562,354.024 56.620,353.556 57.377 C 353.497 57.473,353.431 57.715,353.409 57.914 C 353.351 58.442,352.589 60.025,352.193 60.441 C 352.006 60.637,351.890 60.834,351.935 60.879 C 352.071 61.015,350.633 62.171,349.792 62.601 C 349.356 62.824,349.000 62.965,349.000 62.915 C 349.000 62.865,348.794 62.928,348.542 63.054 C 347.984 63.334,344.690 63.399,344.030 63.143 C 343.785 63.048,343.455 62.944,343.298 62.913 C 342.073 62.665,337.895 59.348,338.785 59.331 C 338.857 59.329,338.833 59.273,338.731 59.206 C 338.560 59.093,337.899 57.912,337.847 57.627 C 337.805 57.396,337.714 57.084,337.495 56.417 C 336.925 54.680,336.924 50.077,337.493 49.014 C 337.595 48.823,337.630 48.667,337.570 48.667 C 337.510 48.667,337.585 48.479,337.735 48.250 C 337.885 48.021,337.957 47.833,337.895 47.833 C 337.833 47.833,337.917 47.683,338.083 47.500 C 338.249 47.317,338.317 47.166,338.234 47.164 C 338.151 47.163,338.159 47.106,338.252 47.039 C 338.344 46.972,338.628 46.595,338.883 46.202 C 339.138 45.808,339.531 45.416,339.757 45.331 C 339.982 45.245,340.167 45.114,340.167 45.039 C 340.167 44.752,342.250 43.835,343.161 43.722 C 343.478 43.683,343.778 43.610,343.827 43.561 C 343.917 43.471,346.456 43.585,347.083 43.707 M310.811 43.912 C 310.773 43.949,310.548 44.015,310.310 44.058 C 309.616 44.184,308.600 44.706,307.837 45.329 C 307.182 45.864,305.682 47.833,305.930 47.833 C 305.989 47.833,305.915 48.021,305.765 48.250 C 305.615 48.479,305.530 48.667,305.575 48.667 C 305.621 48.667,305.579 48.873,305.481 49.125 C 304.852 50.751,305.003 52.872,305.873 54.639 C 306.344 55.596,308.329 57.955,308.336 57.566 C 308.337 57.484,308.394 57.496,308.461 57.592 C 308.602 57.794,309.698 58.326,310.152 58.414 C 310.321 58.446,310.749 58.554,311.104 58.652 C 311.978 58.895,312.859 58.879,314.250 58.595 C 316.517 58.131,316.858 57.971,318.137 56.770 C 318.442 56.484,318.670 56.325,318.644 56.417 C 318.388 57.311,319.939 58.331,322.081 58.677 C 325.383 59.210,328.084 57.760,328.579 55.190 C 328.608 55.039,328.710 54.616,328.805 54.249 C 328.901 53.883,328.986 51.779,328.996 49.574 C 329.016 44.862,329.081 45.037,327.330 45.034 C 325.366 45.031,325.316 45.158,325.343 50.066 C 325.355 52.370,325.296 54.092,325.198 54.274 C 325.107 54.444,325.044 54.632,325.058 54.692 C 325.262 55.576,322.970 56.299,321.876 55.695 C 321.553 55.518,320.692 54.167,320.902 54.167 C 320.943 54.167,320.912 53.941,320.833 53.664 C 320.753 53.388,320.672 52.357,320.651 51.373 C 320.631 50.389,320.516 49.301,320.397 48.956 C 320.278 48.611,320.181 48.290,320.183 48.243 C 320.222 47.024,317.509 44.616,315.450 44.042 C 315.029 43.925,310.913 43.809,310.811 43.912 M314.117 46.705 C 314.374 46.818,314.638 46.986,314.706 47.080 C 314.773 47.173,314.829 47.188,314.831 47.112 C 314.841 46.586,316.265 48.607,316.438 49.391 C 316.943 51.691,316.903 52.517,316.219 53.959 C 315.098 56.321,312.234 56.726,310.340 54.788 C 310.061 54.503,309.833 54.181,309.833 54.072 C 309.833 53.963,309.722 53.781,309.585 53.668 C 309.449 53.555,309.375 53.401,309.421 53.326 C 309.468 53.251,309.439 53.148,309.357 53.098 C 308.785 52.744,309.120 48.000,309.717 48.000 C 309.792 48.000,309.815 47.938,309.768 47.863 C 309.678 47.717,310.241 47.167,310.481 47.167 C 310.561 47.167,310.719 47.055,310.832 46.919 C 310.945 46.782,311.089 46.702,311.152 46.741 C 311.215 46.780,311.375 46.742,311.508 46.658 C 311.860 46.435,313.574 46.466,314.117 46.705 M22.833 55.738 L 22.833 61.809 21.958 61.913 C 19.070 62.254,14.520 62.260,12.733 61.925 L 12.137 61.813 12.197 57.698 C 12.264 53.007,12.347 52.686,13.875 51.201 C 15.211 49.902,16.076 49.675,19.708 49.671 L 22.833 49.667 22.833 55.738 M54.559 50.942 C 54.776 53.506,54.685 59.879,54.418 60.776 C 53.930 62.421,53.029 62.835,49.892 62.857 C 45.202 62.890,43.851 61.453,43.841 56.417 C 43.830 51.278,45.585 49.704,51.351 49.680 L 54.451 49.667 54.559 50.942 M216.007 49.792 C 216.693 61.851,216.379 62.799,211.681 62.857 C 206.780 62.918,205.460 61.569,205.461 56.500 C 205.461 52.829,206.369 51.064,208.766 50.079 C 209.756 49.672,215.986 49.425,216.007 49.792 M360.659 65.305 C 360.641 70.395,360.589 71.834,360.408 72.183 C 360.283 72.426,360.225 72.670,360.281 72.725 C 360.336 72.780,360.258 72.873,360.108 72.930 C 359.958 72.988,359.876 73.101,359.926 73.182 C 359.976 73.262,359.769 73.479,359.467 73.663 C 358.739 74.107,354.333 74.182,354.333 73.750 C 354.333 73.612,354.408 73.500,354.500 73.500 C 354.592 73.500,354.667 73.420,354.667 73.321 C 354.667 73.223,354.760 73.038,354.875 72.911 C 355.321 72.413,355.500 72.177,355.500 72.085 C 355.500 72.033,355.785 71.486,356.133 70.870 C 356.696 69.872,357.603 67.719,357.552 67.500 C 357.542 67.454,357.612 67.268,357.709 67.087 C 357.896 66.737,358.142 65.864,358.253 65.153 C 358.290 64.916,358.400 64.512,358.498 64.255 C 358.596 63.998,358.643 63.754,358.603 63.714 C 358.563 63.674,358.600 63.403,358.685 63.112 C 358.770 62.821,358.881 62.208,358.931 61.750 C 358.981 61.292,359.064 60.654,359.115 60.333 C 359.166 60.012,359.218 59.525,359.229 59.250 C 359.249 58.766,359.272 58.752,359.965 58.809 L 360.681 58.868 360.659 65.305 M320.092 59.590 C 319.099 60.582,319.639 61.956,321.023 61.956 C 322.227 61.956,322.662 61.219,322.246 59.881 C 322.032 59.194,320.672 59.010,320.092 59.590 M324.905 59.452 C 324.410 59.947,324.139 60.484,324.234 60.784 C 324.287 60.948,324.330 61.140,324.331 61.208 C 324.344 61.971,326.285 62.226,326.808 61.534 C 327.245 60.954,327.046 59.590,326.499 59.416 C 325.779 59.188,325.155 59.202,324.905 59.452 M322.398 62.672 C 322.021 62.747,321.384 62.902,320.981 63.017 C 320.579 63.133,320.212 63.235,320.167 63.245 C 319.855 63.312,318.836 63.902,318.432 64.250 C 318.166 64.479,317.885 64.667,317.807 64.667 C 317.730 64.667,317.667 64.782,317.667 64.922 C 317.667 65.062,317.554 65.220,317.417 65.273 C 317.279 65.326,317.167 65.443,317.167 65.534 C 317.167 65.624,316.998 65.935,316.792 66.224 C 316.586 66.513,316.411 66.787,316.403 66.833 C 316.394 66.879,316.331 67.067,316.261 67.250 C 315.788 68.494,315.717 68.891,315.744 70.167 C 315.816 73.546,318.215 76.744,321.064 77.261 C 321.299 77.303,321.662 77.400,321.871 77.476 C 322.308 77.634,324.410 77.607,324.945 77.435 C 325.144 77.371,325.452 77.291,325.630 77.257 C 331.440 76.138,333.318 67.562,328.500 64.152 C 327.969 63.776,326.917 63.240,326.917 63.346 C 326.917 63.370,326.743 63.297,326.531 63.183 C 326.319 63.070,325.981 62.945,325.781 62.906 C 323.455 62.456,323.482 62.458,322.398 62.672 M324.543 65.542 C 324.705 65.576,324.926 65.693,325.035 65.802 C 325.144 65.911,325.290 66.000,325.359 66.000 C 325.541 66.000,326.333 66.819,326.333 67.008 C 326.333 67.095,326.391 67.167,326.461 67.167 C 326.745 67.167,327.208 68.660,327.289 69.833 C 327.470 72.473,326.634 74.104,324.833 74.622 C 323.924 74.884,321.833 74.531,321.833 74.116 C 321.833 74.041,321.768 74.021,321.688 74.070 C 321.096 74.436,319.609 71.241,319.639 69.667 C 319.667 68.125,320.680 65.949,321.215 66.280 C 321.312 66.340,321.334 66.303,321.266 66.192 C 321.156 66.015,321.693 65.694,322.307 65.570 C 322.430 65.545,322.580 65.475,322.640 65.413 C 322.739 65.312,323.790 65.383,324.543 65.542 M174.917 74.811 C 172.309 75.998,171.583 79.708,173.526 81.920 C 175.105 83.719,178.408 83.789,180.026 82.057 C 183.400 78.447,179.397 72.770,174.917 74.811 M184.715 74.848 C 182.103 76.141,181.418 79.710,183.359 81.920 C 185.371 84.212,189.406 83.631,190.711 80.862 C 192.493 77.078,188.435 73.006,184.715 74.848 M307.667 81.500 C 307.667 81.592,307.775 81.667,307.907 81.667 C 308.039 81.667,308.193 81.592,308.250 81.500 C 308.307 81.408,308.199 81.333,308.010 81.333 C 307.821 81.333,307.667 81.408,307.667 81.500 " stroke="none" fill="#ee0000" fill-rule="evenodd"></path><path id="path4" d="M343.208 0.115 C 343.369 0.157,343.631 0.157,343.792 0.115 C 343.952 0.073,343.821 0.039,343.500 0.039 C 343.179 0.039,343.048 0.073,343.208 0.115 M347.875 5.282 C 348.035 5.323,348.298 5.323,348.458 5.282 C 348.619 5.240,348.488 5.205,348.167 5.205 C 347.846 5.205,347.715 5.240,347.875 5.282 M307.552 15.750 C 306.951 16.346,306.524 16.832,306.604 16.830 C 306.779 16.826,308.937 14.667,308.765 14.667 C 308.700 14.667,308.154 15.154,307.552 15.750 M384.000 15.750 C 384.591 16.346,385.111 16.833,385.157 16.833 C 385.203 16.833,384.757 16.346,384.167 15.750 C 383.576 15.154,383.055 14.667,383.010 14.667 C 382.964 14.667,383.409 15.154,384.000 15.750 M319.614 18.009 C 319.340 19.030,319.725 21.135,320.444 22.554 C 320.856 23.366,320.860 23.402,320.560 23.633 C 320.357 23.790,320.336 23.846,320.500 23.799 C 320.937 23.671,321.922 21.604,321.498 21.704 C 321.067 21.806,320.017 19.695,319.988 18.669 C 319.967 17.916,319.744 17.522,319.614 18.009 M379.000 18.333 C 379.211 18.517,379.422 18.667,379.468 18.667 C 379.514 18.667,379.416 18.517,379.250 18.333 C 379.084 18.150,378.873 18.000,378.782 18.000 C 378.691 18.000,378.789 18.150,379.000 18.333 M325.750 19.953 C 323.689 20.451,324.171 23.664,326.308 23.666 C 328.457 23.668,328.929 20.579,326.867 20.007 C 326.528 19.912,326.212 19.843,326.167 19.854 C 326.121 19.864,325.933 19.908,325.750 19.953 M381.167 20.403 C 381.167 20.578,381.669 21.054,381.759 20.963 C 381.801 20.921,381.685 20.751,381.501 20.584 C 381.317 20.418,381.167 20.336,381.167 20.403 M321.712 20.988 C 321.725 21.165,321.795 21.274,321.868 21.229 C 322.053 21.114,322.033 20.667,321.844 20.667 C 321.758 20.667,321.698 20.811,321.712 20.988 M331.667 22.824 C 329.560 25.034,327.012 25.039,323.015 22.841 L 321.833 22.192 321.830 22.721 C 321.828 23.012,321.673 23.587,321.487 24.000 C 321.300 24.412,321.231 24.667,321.334 24.565 C 321.471 24.429,321.752 24.627,322.394 25.315 C 323.694 26.706,323.833 26.992,323.833 28.266 C 323.833 29.356,323.781 29.638,323.169 31.833 C 323.003 32.429,322.780 33.404,322.672 34.000 C 322.327 35.922,322.139 36.499,321.853 36.521 C 321.497 36.548,322.950 36.805,323.552 36.821 C 323.834 36.828,323.977 36.765,323.913 36.661 C 323.801 36.479,324.972 33.833,325.165 33.833 C 325.227 33.833,325.383 34.040,325.513 34.292 C 325.643 34.544,325.787 34.788,325.833 34.833 C 325.916 34.916,326.330 35.657,326.787 36.542 C 327.009 36.970,327.091 36.999,328.054 36.981 C 328.620 36.970,328.952 36.927,328.792 36.885 C 328.631 36.843,328.500 36.785,328.500 36.756 C 328.500 36.727,328.350 35.974,328.167 35.083 C 327.640 32.521,327.829 27.412,328.458 27.207 C 328.573 27.169,328.667 27.253,328.667 27.393 C 328.667 27.533,328.741 27.693,328.831 27.748 C 328.921 27.804,328.835 27.432,328.640 26.922 C 328.157 25.661,328.338 25.607,329.459 26.676 C 329.982 27.175,330.242 27.391,330.038 27.156 C 329.631 26.687,329.574 26.500,329.840 26.500 C 329.936 26.500,330.105 26.427,330.215 26.339 C 330.326 26.250,330.824 25.855,331.323 25.462 C 332.325 24.671,333.133 23.317,333.287 22.173 C 333.420 21.184,333.115 21.306,331.667 22.824 M315.865 22.506 C 315.664 22.693,315.500 22.931,315.500 23.034 C 315.500 23.138,315.519 23.191,315.542 23.153 C 315.565 23.115,315.765 22.877,315.987 22.625 C 316.461 22.088,316.389 22.018,315.865 22.506 M316.902 22.289 C 317.168 22.328,317.581 22.476,317.818 22.617 L 318.250 22.873 317.833 22.523 C 317.592 22.321,317.207 22.183,316.917 22.195 L 316.417 22.217 316.902 22.289 M319.202 24.413 C 318.599 24.731,317.914 25.219,318.417 24.971 C 318.508 24.926,318.861 24.762,319.201 24.607 C 319.541 24.452,319.864 24.251,319.919 24.162 C 320.042 23.964,320.072 23.953,319.202 24.413 M311.513 24.510 C 311.506 24.653,311.617 24.915,311.759 25.093 C 312.014 25.411,312.016 25.411,311.865 25.083 C 311.781 24.900,311.670 24.637,311.619 24.500 C 311.539 24.284,311.525 24.285,311.513 24.510 M320.037 26.046 C 319.375 26.712,318.833 27.331,318.833 27.420 C 318.833 27.561,319.607 26.791,320.987 25.277 C 321.793 24.393,321.213 24.862,320.037 26.046 M314.286 25.509 C 314.518 25.722,315.167 25.861,315.167 25.697 C 315.167 25.609,314.939 25.504,314.661 25.464 C 314.384 25.423,314.215 25.443,314.286 25.509 M316.542 25.451 C 316.335 25.491,316.167 25.589,316.167 25.670 C 316.167 25.750,316.410 25.734,316.708 25.633 C 317.576 25.340,317.507 25.265,316.542 25.451 M333.000 25.379 C 333.000 25.411,333.244 25.616,333.542 25.834 C 333.877 26.079,333.993 26.119,333.847 25.939 C 333.625 25.666,333.000 25.253,333.000 25.379 M337.500 26.515 C 337.500 26.615,337.331 26.844,337.125 27.025 L 336.750 27.353 337.208 27.074 C 337.596 26.838,337.852 26.333,337.583 26.333 C 337.537 26.333,337.500 26.415,337.500 26.515 M314.143 27.324 C 314.360 27.512,314.622 27.666,314.727 27.664 C 314.926 27.661,314.649 27.441,314.083 27.152 C 313.821 27.018,313.834 27.055,314.143 27.324 M333.487 27.439 C 333.116 27.843,333.112 27.864,333.439 27.694 C 333.634 27.592,333.838 27.395,333.892 27.255 C 334.028 26.899,333.952 26.934,333.487 27.439 M337.234 28.208 L 336.917 28.583 337.274 28.281 C 337.550 28.049,337.652 28.029,337.720 28.198 C 337.777 28.341,337.812 28.315,337.820 28.125 C 337.838 27.727,337.615 27.759,337.234 28.208 M332.125 28.287 C 332.423 28.324,332.910 28.324,333.208 28.287 C 333.506 28.250,333.262 28.220,332.667 28.220 C 332.071 28.220,331.827 28.250,332.125 28.287 M329.660 28.952 C 329.854 29.246,330.254 29.646,330.548 29.840 L 331.083 30.194 330.605 29.783 C 330.342 29.558,329.942 29.158,329.717 28.895 L 329.306 28.417 329.660 28.952 M335.750 29.256 C 335.475 29.382,335.367 29.488,335.510 29.492 C 335.653 29.497,335.915 29.390,336.093 29.255 C 336.488 28.956,336.404 28.957,335.750 29.256 M297.380 29.875 C 297.191 30.119,296.981 30.667,297.076 30.667 C 297.113 30.667,297.254 30.442,297.392 30.167 C 297.654 29.640,297.650 29.526,297.380 29.875 M339.750 31.167 C 339.608 31.442,339.529 31.667,339.575 31.667 C 339.621 31.667,339.774 31.442,339.917 31.167 C 340.059 30.892,340.138 30.667,340.092 30.667 C 340.046 30.667,339.892 30.892,339.750 31.167 M315.714 31.917 C 315.716 32.375,315.748 32.543,315.786 32.289 C 315.825 32.036,315.824 31.661,315.784 31.456 C 315.744 31.251,315.713 31.458,315.714 31.917 M333.720 33.000 C 333.720 33.596,333.750 33.840,333.787 33.542 C 333.824 33.244,333.824 32.756,333.787 32.458 C 333.750 32.160,333.720 32.404,333.720 33.000 M376.070 42.750 C 376.066 48.525,376.086 52.837,376.113 52.333 C 376.141 51.829,376.185 49.054,376.210 46.167 C 376.235 43.279,376.318 40.767,376.394 40.583 C 376.501 40.323,376.493 40.304,376.353 40.500 C 376.225 40.681,376.162 39.572,376.126 36.500 C 376.099 34.162,376.074 36.975,376.070 42.750 M317.250 33.333 C 317.108 33.608,317.017 33.833,317.048 33.833 C 317.079 33.833,317.270 33.608,317.474 33.333 C 317.677 33.058,317.768 32.833,317.676 32.833 C 317.584 32.833,317.392 33.058,317.250 33.333 M372.244 41.000 C 372.244 45.354,372.265 47.135,372.292 44.958 C 372.318 42.781,372.318 39.219,372.292 37.042 C 372.265 34.865,372.244 36.646,372.244 41.000 M316.250 35.167 C 316.108 35.442,316.029 35.667,316.075 35.667 C 316.121 35.667,316.274 35.442,316.417 35.167 C 316.559 34.892,316.638 34.667,316.592 34.667 C 316.546 34.667,316.392 34.892,316.250 35.167 M318.998 35.554 C 319.195 35.814,319.194 35.881,318.989 36.010 C 318.839 36.105,318.824 36.163,318.948 36.164 C 319.309 36.169,319.378 35.806,319.071 35.526 C 318.786 35.266,318.782 35.268,318.998 35.554 M332.240 35.903 C 332.300 36.087,332.253 36.281,332.131 36.359 C 331.973 36.459,331.994 36.496,332.208 36.497 C 332.537 36.500,332.584 36.207,332.315 35.833 C 332.168 35.629,332.154 35.641,332.240 35.903 M309.254 36.797 C 309.519 37.025,310.363 37.349,310.261 37.184 C 310.209 37.101,309.925 36.948,309.629 36.845 C 309.333 36.742,309.164 36.720,309.254 36.797 M345.042 37.948 C 345.202 37.990,345.465 37.990,345.625 37.948 C 345.785 37.906,345.654 37.872,345.333 37.872 C 345.012 37.872,344.881 37.906,345.042 37.948 M359.167 39.417 C 359.794 40.064,360.063 40.207,359.567 39.630 C 358.993 38.961,358.859 38.833,358.729 38.833 C 358.659 38.833,358.856 39.096,359.167 39.417 M320.333 39.690 C 320.333 39.769,320.521 39.833,320.750 39.833 C 320.979 39.833,321.167 39.805,321.167 39.769 C 321.167 39.734,320.979 39.670,320.750 39.626 C 320.521 39.582,320.333 39.611,320.333 39.690 M330.333 39.667 L 329.917 39.800 330.375 39.817 C 330.627 39.826,330.833 39.758,330.833 39.667 C 330.833 39.575,330.815 39.507,330.792 39.517 C 330.769 39.526,330.563 39.593,330.333 39.667 M324.201 39.957 C 324.816 39.989,325.866 39.989,326.534 39.957 C 327.203 39.926,326.700 39.899,325.417 39.899 C 324.133 39.899,323.586 39.925,324.201 39.957 M363.681 40.390 C 363.566 40.604,363.505 40.998,363.545 41.265 C 363.613 41.727,363.618 41.724,363.642 41.180 C 363.655 40.866,363.791 40.472,363.942 40.305 C 364.094 40.137,364.144 40.000,364.054 40.000 C 363.964 40.000,363.796 40.175,363.681 40.390 M313.898 40.571 C 313.848 40.702,313.835 40.983,313.869 41.196 C 313.915 41.481,313.953 41.418,314.015 40.958 C 314.103 40.311,314.057 40.159,313.898 40.571 M379.147 41.036 C 379.224 41.499,379.247 41.523,379.300 41.189 C 379.334 40.972,379.293 40.726,379.209 40.642 C 379.116 40.550,379.092 40.705,379.147 41.036 M383.814 41.036 C 383.890 41.499,383.914 41.523,383.966 41.189 C 384.000 40.972,383.960 40.726,383.876 40.642 C 383.783 40.550,383.759 40.705,383.814 41.036 M366.358 41.028 C 366.345 41.273,366.290 41.610,366.237 41.778 C 366.147 42.067,366.152 42.067,366.331 41.787 C 366.436 41.625,366.490 41.287,366.452 41.037 L 366.383 40.583 366.358 41.028 M352.667 41.903 C 352.667 42.005,353.764 42.667,353.933 42.667 C 354.013 42.667,353.801 42.479,353.464 42.250 C 352.870 41.846,352.667 41.758,352.667 41.903 M335.500 43.750 C 335.095 44.163,334.801 44.500,334.847 44.500 C 334.893 44.500,335.262 44.163,335.667 43.750 C 336.072 43.337,336.365 43.000,336.319 43.000 C 336.274 43.000,335.905 43.337,335.500 43.750 M312.458 43.784 C 312.665 43.824,313.002 43.824,313.208 43.784 C 313.415 43.745,313.246 43.712,312.833 43.712 C 312.421 43.712,312.252 43.745,312.458 43.784 M316.833 44.575 C 316.833 44.621,317.058 44.774,317.333 44.917 C 317.608 45.059,317.833 45.138,317.833 45.092 C 317.833 45.046,317.608 44.892,317.333 44.750 C 317.058 44.608,316.833 44.529,316.833 44.575 M339.249 45.668 C 338.814 46.149,339.007 46.196,339.496 45.728 C 339.724 45.511,339.829 45.333,339.731 45.333 C 339.632 45.333,339.415 45.484,339.249 45.668 M351.000 45.917 C 351.311 46.237,351.603 46.500,351.649 46.500 C 351.695 46.500,351.478 46.237,351.167 45.917 C 350.856 45.596,350.564 45.333,350.518 45.333 C 350.472 45.333,350.689 45.596,351.000 45.917 M329.069 48.667 C 329.069 50.362,329.094 51.056,329.124 50.208 C 329.154 49.360,329.154 47.973,329.124 47.125 C 329.094 46.277,329.069 46.971,329.069 48.667 M380.571 49.250 C 380.571 51.267,380.595 52.069,380.625 51.032 C 380.654 49.996,380.654 48.346,380.624 47.366 C 380.595 46.385,380.571 47.233,380.571 49.250 M370.569 48.833 C 370.569 50.438,370.594 51.094,370.624 50.292 C 370.655 49.490,370.655 48.177,370.624 47.375 C 370.594 46.573,370.569 47.229,370.569 48.833 M316.714 51.583 C 316.716 52.042,316.748 52.209,316.786 51.956 C 316.825 51.703,316.824 51.328,316.784 51.123 C 316.744 50.918,316.713 51.125,316.714 51.583 M297.205 51.667 C 297.205 51.987,297.240 52.119,297.282 51.958 C 297.323 51.798,297.323 51.535,297.282 51.375 C 297.240 51.215,297.205 51.346,297.205 51.667 M399.872 51.667 C 399.872 51.987,399.906 52.119,399.948 51.958 C 399.990 51.798,399.990 51.535,399.948 51.375 C 399.906 51.215,399.872 51.346,399.872 51.667 M291.705 51.833 C 291.705 52.154,291.740 52.285,291.782 52.125 C 291.823 51.965,291.823 51.702,291.782 51.542 C 291.740 51.381,291.705 51.512,291.705 51.833 M353.889 53.833 C 353.889 54.521,353.919 54.802,353.955 54.458 C 353.991 54.115,353.991 53.552,353.955 53.208 C 353.919 52.865,353.889 53.146,353.889 53.833 M366.581 54.173 C 366.518 54.373,366.192 54.843,365.858 55.218 C 365.374 55.761,365.341 55.834,365.697 55.575 C 366.160 55.238,366.932 54.043,366.782 53.893 C 366.735 53.846,366.645 53.972,366.581 54.173 M310.099 54.535 C 310.492 54.991,311.067 55.487,311.131 55.425 C 311.192 55.364,309.996 54.167,309.874 54.167 C 309.823 54.167,309.925 54.333,310.099 54.535 M360.545 55.167 C 360.545 55.579,360.578 55.748,360.618 55.542 C 360.657 55.335,360.657 54.998,360.618 54.792 C 360.578 54.585,360.545 54.754,360.545 55.167 M297.205 56.167 C 297.205 56.487,297.240 56.619,297.282 56.458 C 297.323 56.298,297.323 56.035,297.282 55.875 C 297.240 55.715,297.205 55.846,297.205 56.167 M291.709 56.417 C 291.711 56.783,291.745 56.914,291.785 56.706 C 291.824 56.499,291.823 56.199,291.781 56.040 C 291.739 55.880,291.707 56.050,291.709 56.417 M317.958 56.923 C 317.615 57.243,317.333 57.556,317.333 57.618 C 317.333 57.681,317.581 57.492,317.883 57.199 C 318.333 56.763,318.475 56.704,318.667 56.875 C 318.863 57.049,318.868 57.040,318.702 56.818 C 318.592 56.672,318.552 56.503,318.613 56.443 C 318.673 56.383,318.691 56.335,318.653 56.338 C 318.615 56.340,318.302 56.604,317.958 56.923 M332.336 56.931 C 332.337 57.106,332.415 57.362,332.508 57.500 C 332.631 57.683,332.647 57.615,332.565 57.250 C 332.428 56.637,332.332 56.504,332.336 56.931 M368.828 57.214 C 368.596 57.417,368.221 57.718,367.995 57.882 C 367.599 58.170,367.604 58.170,368.135 57.882 C 368.438 57.718,368.845 57.415,369.039 57.208 C 369.488 56.731,369.376 56.734,368.828 57.214 M381.500 57.937 L 381.083 58.181 381.500 58.070 C 381.964 57.946,382.089 57.867,381.986 57.764 C 381.948 57.725,381.729 57.803,381.500 57.937 M364.381 59.583 C 364.382 60.042,364.415 60.209,364.453 59.956 C 364.491 59.703,364.490 59.328,364.451 59.123 C 364.411 58.918,364.380 59.125,364.381 59.583 M351.424 61.258 C 350.826 61.856,350.894 61.998,351.500 61.417 C 351.775 61.153,352.000 60.914,352.000 60.885 C 352.000 60.748,351.812 60.870,351.424 61.258 M321.083 62.000 L 320.583 62.127 321.032 62.147 C 321.279 62.158,321.527 62.092,321.583 62.000 C 321.640 61.908,321.663 61.842,321.635 61.853 C 321.607 61.864,321.358 61.930,321.083 62.000 M325.750 62.000 C 325.289 62.117,325.282 62.129,325.667 62.144 C 325.896 62.154,326.196 62.089,326.333 62.000 C 326.617 61.817,326.470 61.817,325.750 62.000 M320.407 63.096 C 320.229 63.240,320.183 63.307,320.305 63.244 C 320.426 63.182,320.726 63.070,320.971 62.996 C 321.329 62.889,321.349 62.859,321.074 62.848 C 320.885 62.840,320.585 62.951,320.407 63.096 M374.544 64.286 C 374.797 64.325,375.172 64.324,375.377 64.284 C 375.582 64.244,375.375 64.213,374.917 64.214 C 374.458 64.216,374.291 64.248,374.544 64.286 M380.047 64.289 C 380.485 64.324,381.160 64.323,381.547 64.288 C 381.934 64.254,381.575 64.225,380.750 64.226 C 379.925 64.226,379.609 64.255,380.047 64.289 M383.333 64.556 C 383.333 64.599,383.575 64.718,383.871 64.822 C 384.167 64.925,384.336 64.940,384.246 64.857 C 384.056 64.679,383.333 64.441,383.333 64.556 M352.333 65.008 L 351.917 65.342 352.375 65.144 C 352.627 65.036,352.833 64.884,352.833 64.807 C 352.833 64.616,352.810 64.626,352.333 65.008 M338.667 65.408 C 338.667 65.454,338.892 65.608,339.167 65.750 C 339.442 65.892,339.667 65.971,339.667 65.925 C 339.667 65.879,339.442 65.726,339.167 65.583 C 338.892 65.441,338.667 65.362,338.667 65.408 M364.395 67.000 C 364.395 67.962,364.423 68.356,364.456 67.875 C 364.490 67.394,364.490 66.606,364.456 66.125 C 364.423 65.644,364.395 66.037,364.395 67.000 M316.705 66.095 C 316.499 66.410,316.363 66.667,316.404 66.667 C 316.520 66.667,317.210 65.655,317.141 65.586 C 317.107 65.552,316.911 65.781,316.705 66.095 M320.906 66.375 L 320.417 66.917 320.999 66.417 C 321.320 66.142,321.613 65.898,321.652 65.875 C 321.691 65.852,321.649 65.833,321.559 65.833 C 321.469 65.833,321.175 66.077,320.906 66.375 M386.333 66.474 C 386.333 66.552,386.495 66.758,386.692 66.933 L 387.052 67.250 386.757 66.792 C 386.452 66.319,386.333 66.230,386.333 66.474 M326.861 68.175 C 326.959 68.455,327.069 68.653,327.107 68.615 C 327.190 68.532,326.875 67.667,326.763 67.667 C 326.719 67.667,326.764 67.895,326.861 68.175 M373.875 68.124 C 374.585 68.155,375.748 68.155,376.458 68.124 C 377.169 68.093,376.587 68.067,375.167 68.067 C 373.746 68.067,373.165 68.093,373.875 68.124 M319.512 69.958 C 319.558 70.447,319.811 70.719,319.822 70.292 C 319.828 70.040,319.758 69.833,319.667 69.833 C 319.575 69.833,319.505 69.890,319.512 69.958 M356.417 70.333 C 356.274 70.608,356.196 70.833,356.241 70.833 C 356.287 70.833,356.441 70.608,356.583 70.333 C 356.726 70.058,356.804 69.833,356.759 69.833 C 356.713 69.833,356.559 70.058,356.417 70.333 M315.925 72.417 C 315.990 72.692,316.107 72.987,316.185 73.072 C 316.264 73.158,316.256 72.979,316.169 72.674 C 315.966 71.966,315.768 71.758,315.925 72.417 M326.861 72.658 C 326.764 72.938,326.719 73.167,326.763 73.167 C 326.875 73.167,327.190 72.301,327.107 72.218 C 327.069 72.181,326.959 72.378,326.861 72.658 M383.523 72.997 C 383.229 73.362,383.086 73.623,383.203 73.576 C 383.395 73.501,384.250 72.333,384.113 72.333 C 384.081 72.333,383.816 72.632,383.523 72.997 M364.950 72.828 C 364.997 73.008,365.138 73.241,365.264 73.345 C 365.436 73.487,365.428 73.407,365.233 73.017 C 364.939 72.426,364.825 72.350,364.950 72.828 M316.557 73.915 C 316.663 74.144,316.809 74.331,316.881 74.332 C 317.034 74.334,316.735 73.728,316.515 73.592 C 316.432 73.541,316.451 73.687,316.557 73.915 M329.092 75.304 L 328.601 75.917 329.217 75.342 C 329.854 74.749,329.921 74.658,329.708 74.679 C 329.640 74.685,329.362 74.967,329.092 75.304 M363.000 76.167 C 363.229 76.346,363.483 76.494,363.564 76.496 C 363.645 76.498,363.521 76.350,363.288 76.167 C 363.055 75.983,362.801 75.835,362.724 75.837 C 362.647 75.839,362.771 75.987,363.000 76.167 M297.117 77.828 C 297.164 78.008,297.305 78.241,297.430 78.345 C 297.602 78.487,297.595 78.407,297.400 78.017 C 297.105 77.426,296.992 77.350,297.117 77.828 M308.250 81.500 C 308.191 81.595,308.335 81.667,308.583 81.667 C 308.832 81.667,308.975 81.595,308.917 81.500 C 308.860 81.408,308.710 81.333,308.583 81.333 C 308.457 81.333,308.307 81.408,308.250 81.500 M324.208 81.615 C 324.369 81.657,324.631 81.657,324.792 81.615 C 324.952 81.573,324.821 81.539,324.500 81.539 C 324.179 81.539,324.048 81.573,324.208 81.615 M326.208 81.615 C 326.369 81.657,326.631 81.657,326.792 81.615 C 326.952 81.573,326.821 81.539,326.500 81.539 C 326.179 81.539,326.048 81.573,326.208 81.615 M311.375 81.788 C 311.719 81.824,312.281 81.824,312.625 81.788 C 312.969 81.752,312.688 81.723,312.000 81.723 C 311.313 81.723,311.031 81.752,311.375 81.788 M320.455 81.787 C 320.750 81.824,321.275 81.824,321.621 81.788 C 321.967 81.752,321.725 81.722,321.083 81.721 C 320.442 81.721,320.159 81.750,320.455 81.787 M312.333 89.147 C 312.333 89.229,312.540 89.427,312.792 89.588 L 313.250 89.881 312.846 89.441 C 312.409 88.964,312.333 88.921,312.333 89.147 M306.500 91.236 C 306.500 91.412,307.002 91.887,307.092 91.797 C 307.134 91.755,307.018 91.584,306.834 91.418 C 306.650 91.251,306.500 91.169,306.500 91.236 M384.162 92.292 L 383.083 93.417 384.208 92.338 C 384.827 91.745,385.333 91.239,385.333 91.213 C 385.333 91.090,385.164 91.247,384.162 92.292 M307.750 92.660 C 308.117 93.021,308.491 93.321,308.582 93.325 C 308.674 93.330,308.430 93.033,308.040 92.667 C 307.125 91.804,306.876 91.798,307.750 92.660 M381.833 94.417 C 381.718 94.556,381.700 94.667,381.793 94.667 C 381.884 94.667,382.053 94.554,382.167 94.417 C 382.282 94.277,382.300 94.167,382.207 94.167 C 382.116 94.167,381.947 94.279,381.833 94.417 M343.375 102.448 C 343.535 102.490,343.798 102.490,343.958 102.448 C 344.119 102.406,343.988 102.372,343.667 102.372 C 343.346 102.372,343.215 102.406,343.375 102.448 M347.875 102.448 C 348.035 102.490,348.298 102.490,348.458 102.448 C 348.619 102.406,348.488 102.372,348.167 102.372 C 347.846 102.372,347.715 102.406,347.875 102.448 " stroke="none" fill="#f49ab4" fill-rule="evenodd"></path></g></svg>